<svg enable-background="new 0 0 24 24" height="512" viewBox="0 0 24 24" width="512" xmlns="http://www.w3.org/2000/svg"><path d="m23.655 5.621c-.333-.394-.821-.621-1.337-.621h-14.524c-.857 0-1.583.613-1.726 1.458l-1.608 9.5c-.086.509.055 1.027.388 1.421s.82.621 1.337.621h14.524c.857 0 1.583-.613 1.726-1.458l1.608-9.5c.086-.509-.055-1.027-.388-1.421zm-2.145 3.929-6.35 2.63c-.27.12-.57.17-.86.17-.34 0-.68-.07-.99-.23l-5.77-2.84.26-1.54 6.17 3.04c.19.09.42.1.62.02l7.21-2.99zm2.21-1.1.08-.5c.04.18.01.35-.08.5z"/><path d="m4 8h-3c-.553 0-1-.448-1-1s.447-1 1-1h3c.553 0 1 .448 1 1s-.447 1-1 1z"/><path d="m3 12h-2c-.553 0-1-.448-1-1s.447-1 1-1h2c.553 0 1 .448 1 1s-.447 1-1 1z"/><path d="m2 16h-1c-.553 0-1-.448-1-1s.447-1 1-1h1c.553 0 1 .448 1 1s-.447 1-1 1z"/></svg>