<?xml version="1.0"?>
<svg xmlns="http://www.w3.org/2000/svg" xmlns:xlink="http://www.w3.org/1999/xlink" xmlns:svgjs="http://svgjs.com/svgjs" version="1.1" width="512" height="512" x="0" y="0" viewBox="0 0 36 36" style="enable-background:new 0 0 512 512" xml:space="preserve" class=""><g><g xmlns="http://www.w3.org/2000/svg"><path d="m27.623 4.167c-6.917 0-11.667-3.583-15-3.583s-10.333 1.916-10.333 17.249 9.417 17.583 13.083 17.583c17.167.001 24.5-31.249 12.25-31.249z" fill="#efefef" data-original="#efefef" style="" class=""/></g><g xmlns="http://www.w3.org/2000/svg"><path d="m30.5 5c-.827 0-1.5-.673-1.5-1.5s.673-1.5 1.5-1.5 1.5.673 1.5 1.5-.673 1.5-1.5 1.5zm0-2c-.275 0-.5.224-.5.5s.225.5.5.5.5-.224.5-.5-.225-.5-.5-.5z" fill="#a4afc1" data-original="#a4afc1" style="" class=""/></g><g xmlns="http://www.w3.org/2000/svg"><path d="m27.25 28.25h-18.5c-1.105 0-2-.895-2-2v-15h22.5v15c0 1.105-.895 2-2 2z" fill="#f3f3f1" data-original="#f3f3f1" style="" class=""/></g><g xmlns="http://www.w3.org/2000/svg"><path d="m29.25 11.25h-22.5v-1.5c0-1.105.895-2 2-2h18.5c1.105 0 2 .895 2 2z" fill="#03a9f1" data-original="#2fdf84" style="" class=""/></g><g xmlns="http://www.w3.org/2000/svg"><path d="m18.25 25.25h-6.5c-.552 0-1-.448-1-1v-8.5c0-.552.448-1 1-1h6.5c.552 0 1 .448 1 1v8.5c0 .552-.448 1-1 1z" fill="#03a9f1" data-original="#2fdf84" style="" class=""/></g><g xmlns="http://www.w3.org/2000/svg"><path d="m10.75 22.84 1.8-1.8c.444-.444 1.127-.376 1.585.054.217.204.496.306.775.306.33 0 .66-.14.88-.42l.68-.85c.4-.51 1.16-.51 1.56 0l1.22 1.52v2.6c0 .552-.448 1-1 1h-6.5c-.552 0-1-.448-1-1z" fill="#03a9f1" data-original="#2fdf84" style="" class=""/></g><g xmlns="http://www.w3.org/2000/svg"><path d="m13 24.25v-8.5c0-.552.448-1 1-1h-2.25c-.552 0-1 .448-1 1v8.5c0 .552.448 1 1 1h2.25c-.552 0-1-.448-1-1z" fill="#03a9f1" data-original="#00b871" style="" class=""/></g><g xmlns="http://www.w3.org/2000/svg"><path d="m13 24.25v-1.41l1.514-1.514c-.137-.051-.266-.126-.378-.232-.458-.431-1.141-.499-1.586-.054l-1.8 1.8v1.41c0 .552.448 1 1 1h2.25c-.552 0-1-.448-1-1z" fill="#03a9f1" data-original="#00b871" style="" class=""/></g><g xmlns="http://www.w3.org/2000/svg"><path d="m9.25 26.25v-15h-2.5v15c0 1.105.895 2 2 2h2.5c-1.105 0-2-.895-2-2z" fill="#d5dbe1" data-original="#d5dbe1" style="" class=""/></g><g xmlns="http://www.w3.org/2000/svg"><path d="m11 7.75h-2.25c-1.105 0-2 .895-2 2v1.5h2.25v-1.5c0-1.105.895-2 2-2z" fill="#03a9f1" data-original="#00b871" style="" class=""/></g><g xmlns="http://www.w3.org/2000/svg"><path d="m23.25 16.501h1.5v7.5h-1.5z" fill="#000000" data-original="#000000" style="" class=""/></g><g xmlns="http://www.w3.org/2000/svg"><path d="m22 19.812-1.061-1.061 2.533-2.533c.293-.293.768-.293 1.061 0l2.53 2.53-1.061 1.061-2-2z" fill="#000000" data-original="#000000" style="" class=""/></g><g xmlns="http://www.w3.org/2000/svg"><path d="m11.28 23.37-1.06-1.06 1.77-1.77c.729-.73 1.919-.731 2.651 0 .096.097.21.111.27.111.056 0 .195-.013.29-.133l.684-.855c.66-.841 2.068-.846 2.736.005l1.215 1.514-1.17.938-1.22-1.52c-.141-.179-.255-.173-.386-.006l-.684.855c-.651.828-2.034.916-2.797.151-.147-.148-.382-.148-.529.001z" fill="#000000" data-original="#000000" style="" class=""/></g><g xmlns="http://www.w3.org/2000/svg"><path d="m18.25 26h-6.5c-.965 0-1.75-.785-1.75-1.75v-8.5c0-.965.785-1.75 1.75-1.75h6.5c.965 0 1.75.785 1.75 1.75v8.5c0 .965-.785 1.75-1.75 1.75zm-6.5-10.5c-.138 0-.25.112-.25.25v8.5c0 .138.112.25.25.25h6.5c.138 0 .25-.112.25-.25v-8.5c0-.138-.112-.25-.25-.25z" fill="#000000" data-original="#000000" style="" class=""/></g><g xmlns="http://www.w3.org/2000/svg"><path d="m27.25 29h-18.5c-1.517 0-2.75-1.233-2.75-2.75v-16.5c0-1.517 1.233-2.75 2.75-2.75h18.5c1.517 0 2.75 1.233 2.75 2.75v16.5c0 1.517-1.233 2.75-2.75 2.75zm-18.5-20.5c-.689 0-1.25.561-1.25 1.25v16.5c0 .689.561 1.25 1.25 1.25h18.5c.689 0 1.25-.561 1.25-1.25v-16.5c0-.689-.561-1.25-1.25-1.25z" fill="#000000" data-original="#000000" style="" class=""/></g><g xmlns="http://www.w3.org/2000/svg"><path d="m6.75 10.5h22.5v1.5h-22.5z" fill="#000000" data-original="#000000" style="" class=""/></g><g xmlns="http://www.w3.org/2000/svg"><path d="m2 27.5h32v1.5h-32z" fill="#000000" data-original="#000000" style="" class=""/></g></g></svg>
