<?xml version="1.0" encoding="iso-8859-1"?>
<!-- Generator: Adobe Illustrator 19.0.0, SVG Export Plug-In . SVG Version: 6.00 Build 0)  -->
<svg version="1.1" id="Capa_1" xmlns="http://www.w3.org/2000/svg" xmlns:xlink="http://www.w3.org/1999/xlink" x="0px" y="0px"
	 viewBox="0 0 512.001 512.001" style="enable-background:new 0 0 512.001 512.001;" xml:space="preserve">
<g>
	<g>
		<path d="M497.052,301.696l-19.097-39.063c-2.06-4.214-2.06-9.049,0-13.263l19.096-39.065
			c10.632-21.751,2.208-47.676-19.178-59.024l-38.409-20.378c-4.144-2.199-6.986-6.11-7.796-10.729l-7.512-42.828
			c-4.183-23.847-26.243-39.865-50.208-36.479l-43.053,6.09c-4.644,0.661-9.241-0.837-12.613-4.099l-31.251-30.231
			c-17.401-16.836-44.661-16.835-62.06-0.001l-31.252,30.232c-3.372,3.261-7.968,4.756-12.613,4.099l-43.053-6.09
			c-23.964-3.383-46.025,12.633-50.208,36.479l-7.512,42.828c-0.81,4.62-3.652,8.531-7.795,10.729l-38.41,20.38
			c-21.387,11.346-29.811,37.272-19.178,59.024l19.096,39.063c2.06,4.214,2.06,9.049,0,13.263l-19.096,39.065
			c-10.632,21.751-2.208,47.676,19.178,59.024l38.409,20.378c4.144,2.199,6.986,6.11,7.796,10.729l7.512,42.829
			c4.183,23.847,26.242,39.861,50.208,36.479l43.053-6.09c4.647-0.658,9.242,0.838,12.613,4.099l31.251,30.231
			c8.702,8.419,19.864,12.627,31.03,12.626c11.164-0.001,22.332-4.209,31.03-12.625l31.252-30.232
			c3.372-3.261,7.966-4.756,12.613-4.099l43.053,6.09c2.152,0.304,4.285,0.452,6.395,0.452c21.389-0.002,40.006-15.226,43.814-36.93
			l7.512-42.828c0.81-4.62,3.652-8.531,7.795-10.729l38.41-20.38C499.261,349.374,507.685,323.448,497.052,301.696z M201.86,315.06
			c0,6.848-4.708,12.796-11.373,14.37c-1.132,0.267-2.271,0.396-3.396,0.397c-5.495,0-10.661-3.08-13.203-8.164L142.8,259.486
			v55.575c0,8.154-6.611,14.765-14.765,14.765c-8.154,0-14.765-6.611-14.765-14.765V196.94c0-6.848,4.708-12.796,11.373-14.37
			c6.663-1.575,13.537,1.643,16.599,7.767l31.088,62.178V196.94c0-8.154,6.611-14.765,14.765-14.765
			c8.154,0,14.765,6.611,14.765,14.765V315.06z M275.685,241.235c8.154,0,14.765,6.611,14.765,14.765s-6.611,14.765-14.765,14.765
			h-34.452v29.53h44.295c8.154,0,14.765,6.611,14.765,14.765s-6.611,14.765-14.765,14.765h-59.06
			c-8.154,0-14.765-6.611-14.765-14.765V196.94c0-8.154,6.611-14.765,14.765-14.765h59.06c8.154,0,14.765,6.611,14.765,14.765
			s-6.611,14.765-14.765,14.765h-44.295v29.53H275.685z M398.727,315.06c0,6.848-4.708,12.796-11.373,14.37
			c-1.132,0.267-2.271,0.396-3.396,0.397c-5.495,0-10.661-3.08-13.203-8.164l-16.323-32.647l-16.323,32.647
			c-3.062,6.127-9.932,9.341-16.599,7.767c-6.665-1.574-11.373-7.522-11.373-14.37V196.94c0-8.154,6.611-14.765,14.765-14.765
			c8.154,0,14.765,6.611,14.765,14.765v55.575l1.558-3.117c2.501-5.002,7.614-8.162,13.207-8.162s10.705,3.16,13.207,8.162
			l1.558,3.117V196.94c0-8.154,6.611-14.765,14.765-14.765c8.154,0,14.765,6.611,14.765,14.765V315.06z"/>
	</g>
</g>
<g>
</g>
<g>
</g>
<g>
</g>
<g>
</g>
<g>
</g>
<g>
</g>
<g>
</g>
<g>
</g>
<g>
</g>
<g>
</g>
<g>
</g>
<g>
</g>
<g>
</g>
<g>
</g>
<g>
</g>
</svg>
